<svg xmlns="http://www.w3.org/2000/svg" xmlns:xlink="http://www.w3.org/1999/xlink" width="500" zoomAndPan="magnify" viewBox="0 0 375 374.999991" height="500" preserveAspectRatio="xMidYMid meet" version="1.0"><defs><g/><clipPath id="b06904af8d"><path d="M 113.042969 8.835938 L 262.292969 8.835938 L 262.292969 98.085938 L 113.042969 98.085938 Z M 113.042969 8.835938 " clip-rule="nonzero"/></clipPath><clipPath id="d5a25530b3"><rect x="0" width="232" y="0" height="285"/></clipPath></defs><rect x="-37.5" width="450" fill="#ffffff" y="-37.499999" height="449.999989" fill-opacity="1"/><rect x="-37.5" width="450" fill="#000000" y="-37.499999" height="449.999989" fill-opacity="1"/><g clip-path="url(#b06904af8d)"><path fill="#c69842" d="M 258.207031 41.875 L 258.808594 44.488281 C 239.203125 66.234375 226.261719 76.519531 222.480469 71.039062 C 219.464844 60.636719 220.976562 50.347656 225.722656 40.144531 L 229.753906 38.25 L 230.535156 29.300781 L 224.335938 35.800781 L 225.605469 40.15625 C 220.480469 48.761719 214.972656 56.386719 208.679688 61.957031 C 202.046875 67.820312 200.023438 68.640625 195.734375 59.417969 C 192.558594 52.582031 191.46875 43.425781 189.335938 35.429688 L 194.765625 29.082031 L 187.667969 8.851562 L 180.570312 29.082031 L 186 35.425781 C 183.867188 43.421875 182.777344 52.582031 179.601562 59.417969 C 175.3125 68.640625 173.292969 67.820312 166.660156 61.953125 C 160.359375 56.382812 154.855469 48.761719 149.730469 40.152344 L 151 35.800781 L 144.800781 29.300781 L 145.578125 38.25 L 149.613281 40.140625 C 154.359375 50.347656 155.871094 60.636719 152.855469 71.039062 C 149.074219 76.519531 136.132812 66.234375 116.527344 44.488281 L 117.128906 41.871094 L 113.042969 38.054688 L 113.84375 43.589844 L 116.269531 44.5625 L 143.175781 91.441406 C 143.15625 91.453125 143.144531 91.460938 143.144531 91.460938 L 144.195312 93.226562 C 192.472656 77.296875 222.292969 90.453125 222.292969 90.453125 C 222.292969 90.453125 210.476562 83.007812 183.941406 83.0625 C 164.367188 83.023438 151.472656 87.613281 146.054688 90.019531 L 135.621094 69.585938 C 135.792969 69.726562 135.96875 69.867188 136.144531 70.007812 C 140.515625 73.511719 148.175781 79.1875 153.984375 75.808594 C 154.96875 75.234375 155.789062 74.449219 156.4375 73.515625 L 156.835938 72.933594 L 157.035156 72.253906 C 158.207031 68.214844 158.753906 64.203125 158.757812 60.238281 C 160.355469 61.996094 162.023438 63.667969 163.777344 65.21875 C 166.730469 67.828125 170.46875 71.269531 174.734375 70.640625 C 179.347656 69.960938 181.789062 65.039062 183.546875 61.253906 C 185.5 57.058594 186.664062 52.378906 187.667969 47.792969 C 188.675781 52.378906 189.839844 57.058594 191.789062 61.253906 C 193.550781 65.039062 195.992188 69.960938 200.605469 70.640625 C 204.871094 71.269531 208.609375 67.828125 211.558594 65.21875 C 213.3125 63.667969 214.984375 61.996094 216.578125 60.238281 C 216.585938 64.207031 217.132812 68.214844 218.300781 72.253906 L 218.5 72.933594 L 218.898438 73.515625 C 219.546875 74.449219 220.367188 75.234375 221.355469 75.808594 C 227.164062 79.1875 234.820312 73.511719 239.191406 70.007812 C 239.351562 69.878906 239.507812 69.753906 239.667969 69.625 L 225.972656 93.523438 C 219.652344 91.367188 207.144531 88.109375 189.371094 88.144531 C 163.042969 88.089844 151.207031 95.417969 151.023438 95.535156 C 151.300781 95.410156 179.023438 83.347656 224.128906 96.742188 C 225.539062 97.164062 226.964844 97.605469 228.410156 98.074219 L 259.066406 44.5625 L 261.488281 43.59375 L 262.292969 38.054688 Z M 258.207031 41.875 " fill-opacity="1" fill-rule="evenodd"/></g><g transform="matrix(1, 0, 0, 1, 71, 90)"><g clip-path="url(#d5a25530b3)"><g fill="#c69842" fill-opacity="1"><g transform="translate(2.637933, 231.790632)"><g><path d="M 14.59375 -210.15625 L 108 -210.15625 C 136.988281 -210.15625 161.703125 -199.84375 182.140625 -179.21875 C 202.765625 -158.789062 213.078125 -134.078125 213.078125 -105.078125 C 213.078125 -76.085938 202.765625 -51.28125 182.140625 -30.65625 C 161.703125 -10.21875 136.988281 0 108 0 L 14.59375 0 L 14.59375 -2.921875 C 24.90625 -2.921875 31.617188 -5.0625 34.734375 -9.34375 C 36.878906 -12.457031 37.953125 -18.097656 37.953125 -26.265625 L 37.953125 -183.890625 C 37.953125 -192.066406 36.878906 -197.710938 34.734375 -200.828125 C 31.617188 -205.109375 24.90625 -207.25 14.59375 -207.25 Z M 67.140625 -207.25 L 67.140625 -2.921875 L 108 -2.921875 C 118.3125 -2.722656 128.085938 -5.300781 137.328125 -10.65625 C 146.578125 -16.007812 154.703125 -23.453125 161.703125 -32.984375 C 168.710938 -42.515625 174.210938 -53.457031 178.203125 -65.8125 C 182.191406 -78.175781 184.085938 -91.265625 183.890625 -105.078125 C 184.085938 -118.898438 182.191406 -131.988281 178.203125 -144.34375 C 174.210938 -156.695312 168.710938 -167.640625 161.703125 -177.171875 C 154.703125 -186.710938 146.578125 -194.207031 137.328125 -199.65625 C 128.085938 -205.101562 118.3125 -207.632812 108 -207.25 Z M 67.140625 -207.25 "/></g></g></g></g></g></svg>